# Blender 4.0.2
# www.blender.org
mtllib stone_block_tex.mtl
o Cube
v 16.000000 16.000000 -16.000000
v 16.000000 -16.000000 -16.000000
v 16.000000 16.000000 16.000000
v 16.000000 -16.000000 16.000000
v -16.000000 16.000000 -16.000000
v -16.000000 -16.000000 -16.000000
v -16.000000 16.000000 16.000000
v -16.000000 -16.000000 16.000000
vn -0.0000 1.0000 -0.0000
vn -0.0000 -0.0000 1.0000
vn -1.0000 -0.0000 -0.0000
vn -0.0000 -1.0000 -0.0000
vn 1.0000 -0.0000 -0.0000
vn -0.0000 -0.0000 -1.0000
vt 0.062500 0.937500
vt 0.000000 1.000000
vt 0.000000 0.937500
vt 0.062500 1.000000
s 0
usemtl Material
f 5/1/1 3/2/1 1/3/1
f 3/1/2 8/2/2 4/3/2
f 7/2/3 6/1/3 8/4/3
f 2/1/4 8/2/4 6/3/4
f 1/1/5 4/2/5 2/3/5
f 5/1/6 2/2/6 6/3/6
f 5/1/1 7/4/1 3/2/1
f 3/1/2 7/4/2 8/2/2
f 7/2/3 5/3/3 6/1/3
f 2/1/4 4/4/4 8/2/4
f 1/1/5 3/4/5 4/2/5
f 5/1/6 1/4/6 2/2/6
